<?xml version="1.0" ?><svg viewBox="0 0 64 64" xmlns="http://www.w3.org/2000/svg"><title/><g id="Earth"><path d="M62,32a29.5587,29.5587,0,0,1-.99,7.63A30.0583,30.0583,0,0,1,48.5,57.04,30.0044,30.0044,0,0,1,2.01,32.27,2.4369,2.4369,0,0,1,2,32,30.0416,30.0416,0,0,1,32,2,29.6289,29.6289,0,0,1,43.09,4.13,30.0368,30.0368,0,0,1,62,32Z" style="fill:#3fc5f0"/><path d="M29.73,29.28a6.4516,6.4516,0,0,1-2.32,3.31,6.5433,6.5433,0,0,1-3.84,1.29c-3.42.04-8.36-.51-12.34-3.36-1.66-1.18-4.54-.84-7.7.92l-.01.01-1.51.82A2.4369,2.4369,0,0,1,2,32a29.9087,29.9087,0,0,1,9.01-21.41l.57,1.11c4.29,4.83,8.91,8.03,13.76,9.51A6.5385,6.5385,0,0,1,29.73,29.28Z" style="fill:#6decb9"/><path d="M62,32a29.5587,29.5587,0,0,1-.99,7.63l-1.1-.51c-.06-.03-.1-.06-.15-.09a17.6273,17.6273,0,0,0-4.11-2.09,11.752,11.752,0,0,0-9.05.26,5.0043,5.0043,0,0,1-2,.41,5.1177,5.1177,0,0,1-4.95-3.87,5.1836,5.1836,0,0,1,1.28-4.8c1.37-1.44,2.62-3.94.13-10.59-1.31-3.49-.88-8.01,1.28-13.45a.923.923,0,0,1,.3-.4l.45-.37A30.0368,30.0368,0,0,1,62,32Z" style="fill:#6decb9"/><path d="M48.5,57.04a29.9179,29.9179,0,0,1-37.56-3.71l.28-.62a1.7611,1.7611,0,0,1,.14-.23,11.4608,11.4608,0,0,1,6.41-3.45c5.3-1.23,7.42-2.55,8.25-3.44a9.4819,9.4819,0,0,1,12.86-.71A32.85,32.85,0,0,1,47.73,56.3C47.99,56.56,48.25,56.8,48.5,57.04Z" style="fill:#6decb9"/><path d="M62,32a29.5587,29.5587,0,0,1-.99,7.63A30.0583,30.0583,0,0,1,48.5,57.04,30.0751,30.0751,0,0,1,8.01,49.99a29.9986,29.9986,0,0,0,47-16.36A29.5587,29.5587,0,0,0,56,26,29.8828,29.8828,0,0,0,50.02,8.04,29.9484,29.9484,0,0,1,62,32Z" style="opacity:0.1"/></g></svg>